<?xml version="1.0" encoding="UTF-8" standalone="no"?>
<!DOCTYPE svg PUBLIC "-//W3C//DTD SVG 1.1//EN" "http://www.w3.org/Graphics/SVG/1.1/DTD/svg11.dtd">
<svg width="100%" height="100%" viewBox="0 0 41 47" version="1.1" xmlns="http://www.w3.org/2000/svg" xmlns:xlink="http://www.w3.org/1999/xlink" xml:space="preserve" xmlns:serif="http://www.serif.com/" style="fill-rule:evenodd;clip-rule:evenodd;stroke-linejoin:round;stroke-miterlimit:2;">
    <g transform="matrix(1,0,0,1,-1455.77,-1162.33)">
        <g transform="matrix(1,0,0,1,281.882,594.612)">
            <g transform="matrix(0.232726,0,0,0.232726,1204.52,528.825)">
                <path d="M-131.6,217.2L-44.6,167.1L42.4,217.2L42.4,262.4L2.1,249.7L2.1,240.3L-44.6,213.4L-79,233.2L42.4,272L42.4,317.4L-44.6,367.2L-131.6,317.4L-131.6,272L-91.4,284.7L-91.4,294.1L-44.6,321.1L-9.6,300.9L-131.6,262.4L-131.6,217.2Z" style="fill:url(#_Linear1);fill-rule:nonzero;"/>
            </g>
        </g>
    </g>
    <defs>
        <linearGradient id="_Linear1" x1="0" y1="0" x2="1" y2="0" gradientUnits="userSpaceOnUse" gradientTransform="matrix(154.663,184.59,-184.59,154.663,-129.831,160.801)"><stop offset="0" style="stop-color:rgb(100,208,172);stop-opacity:1"/><stop offset="1" style="stop-color:rgb(248,255,174);stop-opacity:1"/></linearGradient>
    </defs>
</svg>
