<?xml version="1.0" encoding="UTF-8" standalone="no"?>
<!DOCTYPE svg PUBLIC "-//W3C//DTD SVG 1.1//EN" "http://www.w3.org/Graphics/SVG/1.1/DTD/svg11.dtd">
<svg width="100%" height="100%" viewBox="0 0 42 43" version="1.1" xmlns="http://www.w3.org/2000/svg" xmlns:xlink="http://www.w3.org/1999/xlink" xml:space="preserve" xmlns:serif="http://www.serif.com/" style="fill-rule:evenodd;clip-rule:evenodd;stroke-linejoin:round;stroke-miterlimit:2;">
    <g transform="matrix(1,0,0,1,-1456.79,-621.838)">
        <g transform="matrix(1,0,0,1,283.592,52)">
            <g transform="matrix(0.160781,0,0,0.160781,1173.2,569.828)">
                <path d="M166.872,131.237L212.781,51.962L234.966,131.237L212.781,210.493L166.872,131.237ZM144.496,144.111L190.412,223.373L110.446,202.887L52.675,144.111L144.496,144.111ZM190.402,39.078L144.496,118.353L52.675,118.353L110.446,59.573L190.402,39.078ZM255.941,104.259L227.933,0.06L123.393,27.985L107.918,55.192L76.517,54.967L0,131.244L76.517,207.503L76.52,207.503L107.908,207.271L123.405,234.478L227.933,262.398L255.941,158.219L240.035,131.237L255.941,104.259Z" style="fill:url(#_Linear1);fill-rule:nonzero;"/>
            </g>
        </g>
    </g>
    <defs>
        <linearGradient id="_Linear1" x1="0" y1="0" x2="1" y2="0" gradientUnits="userSpaceOnUse" gradientTransform="matrix(247.768,257.77,-257.77,247.768,3.75008,1.87029)"><stop offset="0" style="stop-color:rgb(67,198,172);stop-opacity:1"/><stop offset="1" style="stop-color:rgb(248,255,174);stop-opacity:1"/></linearGradient>
    </defs>
</svg>
