<?xml version="1.0" encoding="UTF-8" standalone="no"?>
<!DOCTYPE svg PUBLIC "-//W3C//DTD SVG 1.1//EN" "http://www.w3.org/Graphics/SVG/1.1/DTD/svg11.dtd">
<svg width="100%" height="100%" viewBox="0 0 40 40" version="1.1" xmlns="http://www.w3.org/2000/svg" xmlns:xlink="http://www.w3.org/1999/xlink" xml:space="preserve" xmlns:serif="http://www.serif.com/" style="fill-rule:evenodd;clip-rule:evenodd;stroke-linejoin:round;stroke-miterlimit:2;">
    <g transform="matrix(1,0,0,1,-1456.18,-1439.19)">
        <g transform="matrix(1,0,0,1,281.882,868.142)">
            <g id="_039---VR-Headset" serif:id="039---VR-Headset" transform="matrix(0.0776386,0,0,0.0776386,1174.29,571.052)">
                <circle id="Oval" cx="91.429" cy="128" r="9.143" style="fill:url(#_Linear1);"/>
                <circle id="Oval1" serif:id="Oval" cx="91.429" cy="256" r="9.143" style="fill:url(#_Linear2);"/>
                <circle id="Oval2" serif:id="Oval" cx="420.571" cy="128" r="9.143" style="fill:url(#_Linear3);"/>
                <path id="Shape" d="M140.526,54.857L371.474,54.857C351.177,45.714 315.52,36.571 256,36.571C196.48,36.571 160.823,45.714 140.526,54.857Z" style="fill:url(#_Linear4);fill-rule:nonzero;"/>
                <circle id="Oval3" serif:id="Oval" cx="420.571" cy="256" r="9.143" style="fill:url(#_Linear5);"/>
                <path id="Shape1" serif:id="Shape" d="M274.286,0L237.714,0C232.665,0 228.571,4.093 228.571,9.143L228.571,19.017C237.166,18.286 246.309,18.286 256,18.286C265.691,18.286 274.834,18.286 283.429,19.017L283.429,9.143C283.429,4.093 279.335,0 274.286,0Z" style="fill:url(#_Linear6);fill-rule:nonzero;"/>
                <path id="Shape2" serif:id="Shape" d="M464.091,445.714C457.874,443.246 451.566,440.777 445.257,438.126C421.107,429.276 404.323,407.171 402.286,381.531C388.846,377.326 354.834,370.286 329.783,394.514C326.677,397.468 321.935,397.868 318.378,395.475C314.822,393.082 313.405,388.539 314.971,384.549L356.571,280.046C357.537,277.767 357.537,275.193 356.571,272.914C355.685,270.663 353.943,268.855 351.726,267.886L334.903,260.754C333.769,260.294 332.561,260.046 331.337,260.023C327.69,260.01 324.384,262.166 322.926,265.509L299.337,323.474L266.606,403.931C265.604,406.183 265.553,408.743 266.466,411.033C267.378,413.322 269.176,415.146 271.451,416.091L305.097,430.354C310.386,432.612 315.787,434.595 321.28,436.297C328.869,438.766 338.377,441.966 358.4,450.469C374.908,457.82 390.806,466.472 405.943,476.343C416.53,483.265 427.624,489.377 439.131,494.629C442.606,496.091 446.446,497.92 450.469,499.84C465.554,506.971 482.651,515.2 494.629,510.629C501.31,507.423 506.372,501.6 508.617,494.537C512.104,488.187 512.832,480.684 510.629,473.783C505.6,461.897 485.486,454.034 464.091,445.714Z" style="fill:url(#_Linear7);fill-rule:nonzero;"/>
                <path id="Shape3" serif:id="Shape" d="M502.857,164.571L493.714,164.571L493.714,219.429L502.857,219.429C507.907,219.429 512,215.335 512,210.286L512,173.714C512,168.665 507.907,164.571 502.857,164.571Z" style="fill:url(#_Linear8);fill-rule:nonzero;"/>
                <path id="Shape4" serif:id="Shape" d="M212.571,323.566L188.983,265.143C186.941,260.571 181.601,258.492 177.006,260.48L160.183,267.611C157.966,268.58 156.223,270.389 155.337,272.64C154.423,274.866 154.423,277.363 155.337,279.589L169.966,316.16L197.394,384.274C198.956,388.203 197.62,392.691 194.163,395.126C190.706,397.561 186.031,397.308 182.857,394.514C157.806,370.286 123.794,377.326 110.354,381.531C108.21,407.33 91.144,429.477 66.743,438.126C60.434,440.777 54.126,443.246 47.909,445.714C26.514,454.034 6.4,461.897 1.371,473.874C-0.832,480.776 -0.104,488.279 3.383,494.629C5.628,501.691 10.69,507.514 17.371,510.72C29.349,515.2 46.446,507.063 61.531,499.931C65.554,498.011 69.394,496.183 72.869,494.72C84.376,489.469 95.47,483.356 106.057,476.434C121.168,466.599 137.035,457.978 153.509,450.651C173.714,442.057 182.857,438.857 190.629,436.389C196.121,434.687 201.523,432.703 206.811,430.446L240.457,416.091C245.049,414.12 247.208,408.826 245.303,404.206L212.571,323.566Z" style="fill:url(#_Linear9);fill-rule:nonzero;"/>
                <path id="Shape5" serif:id="Shape" d="M9.143,219.429L18.286,219.429L18.286,164.571L9.143,164.571C4.093,164.571 0,168.665 0,173.714L0,210.286C0,215.335 4.093,219.429 9.143,219.429Z" style="fill:url(#_Linear10);fill-rule:nonzero;"/>
                <path id="Shape6" serif:id="Shape" d="M363.977,310.857L393.143,310.857C438.588,310.857 475.429,274.017 475.429,228.571L475.429,155.429C475.429,109.983 438.588,73.143 393.143,73.143L118.857,73.143C73.412,73.143 36.571,109.983 36.571,155.429L36.571,228.571C36.571,274.017 73.412,310.857 118.857,310.857L148.023,310.857L138.423,286.811C135.704,280.16 135.704,272.708 138.423,266.057C141.145,259.303 146.44,253.909 153.143,251.063L169.966,243.931C183.877,238.025 199.945,244.485 205.897,258.377L227.109,310.857L284.891,310.857L306.103,258.56C308.926,251.832 314.314,246.506 321.075,243.761C327.835,241.015 335.411,241.077 342.126,243.931L358.949,251.063C372.876,256.979 379.381,273.058 373.486,286.994L363.977,310.857ZM420.571,100.571C435.72,100.571 448,112.852 448,128C448,143.148 435.72,155.429 420.571,155.429C405.423,155.429 393.143,143.148 393.143,128C393.143,112.852 405.423,100.571 420.571,100.571ZM420.571,228.571C435.72,228.571 448,240.852 448,256C448,271.148 435.72,283.429 420.571,283.429C405.423,283.429 393.143,271.148 393.143,256C393.143,240.852 405.423,228.571 420.571,228.571ZM91.429,283.429C76.28,283.429 64,271.148 64,256C64,240.852 76.28,228.571 91.429,228.571C106.577,228.571 118.857,240.852 118.857,256C118.857,271.148 106.577,283.429 91.429,283.429ZM91.429,155.429C76.28,155.429 64,143.148 64,128C64,112.852 76.28,100.571 91.429,100.571C106.577,100.571 118.857,112.852 118.857,128C118.857,143.148 106.577,155.429 91.429,155.429ZM283.429,109.714L228.571,109.714C223.522,109.714 219.429,105.621 219.429,100.571C219.429,95.522 223.522,91.429 228.571,91.429L283.429,91.429C288.478,91.429 292.571,95.522 292.571,100.571C292.571,105.621 288.478,109.714 283.429,109.714Z" style="fill:url(#_Linear11);fill-rule:nonzero;"/>
            </g>
        </g>
    </g>
    <defs>
        <linearGradient id="_Linear1" x1="0" y1="0" x2="1" y2="0" gradientUnits="userSpaceOnUse" gradientTransform="matrix(434.712,439.915,-439.915,434.712,25.2418,18.8963)"><stop offset="0" style="stop-color:rgb(100,208,172);stop-opacity:1"/><stop offset="1" style="stop-color:rgb(248,255,174);stop-opacity:1"/></linearGradient>
        <linearGradient id="_Linear2" x1="0" y1="0" x2="1" y2="0" gradientUnits="userSpaceOnUse" gradientTransform="matrix(434.712,439.915,-439.915,434.712,25.2418,18.8963)"><stop offset="0" style="stop-color:rgb(100,208,172);stop-opacity:1"/><stop offset="1" style="stop-color:rgb(248,255,174);stop-opacity:1"/></linearGradient>
        <linearGradient id="_Linear3" x1="0" y1="0" x2="1" y2="0" gradientUnits="userSpaceOnUse" gradientTransform="matrix(434.712,439.915,-439.915,434.712,25.2418,18.8963)"><stop offset="0" style="stop-color:rgb(100,208,172);stop-opacity:1"/><stop offset="1" style="stop-color:rgb(248,255,174);stop-opacity:1"/></linearGradient>
        <linearGradient id="_Linear4" x1="0" y1="0" x2="1" y2="0" gradientUnits="userSpaceOnUse" gradientTransform="matrix(434.712,439.915,-439.915,434.712,25.2418,18.8963)"><stop offset="0" style="stop-color:rgb(100,208,172);stop-opacity:1"/><stop offset="1" style="stop-color:rgb(248,255,174);stop-opacity:1"/></linearGradient>
        <linearGradient id="_Linear5" x1="0" y1="0" x2="1" y2="0" gradientUnits="userSpaceOnUse" gradientTransform="matrix(434.712,439.915,-439.915,434.712,25.2418,18.8963)"><stop offset="0" style="stop-color:rgb(100,208,172);stop-opacity:1"/><stop offset="1" style="stop-color:rgb(248,255,174);stop-opacity:1"/></linearGradient>
        <linearGradient id="_Linear6" x1="0" y1="0" x2="1" y2="0" gradientUnits="userSpaceOnUse" gradientTransform="matrix(434.712,439.915,-439.915,434.712,25.2418,18.8963)"><stop offset="0" style="stop-color:rgb(100,208,172);stop-opacity:1"/><stop offset="1" style="stop-color:rgb(248,255,174);stop-opacity:1"/></linearGradient>
        <linearGradient id="_Linear7" x1="0" y1="0" x2="1" y2="0" gradientUnits="userSpaceOnUse" gradientTransform="matrix(434.712,439.915,-439.915,434.712,25.2418,18.8963)"><stop offset="0" style="stop-color:rgb(100,208,172);stop-opacity:1"/><stop offset="1" style="stop-color:rgb(248,255,174);stop-opacity:1"/></linearGradient>
        <linearGradient id="_Linear8" x1="0" y1="0" x2="1" y2="0" gradientUnits="userSpaceOnUse" gradientTransform="matrix(434.712,439.915,-439.915,434.712,25.2418,18.8963)"><stop offset="0" style="stop-color:rgb(100,208,172);stop-opacity:1"/><stop offset="1" style="stop-color:rgb(248,255,174);stop-opacity:1"/></linearGradient>
        <linearGradient id="_Linear9" x1="0" y1="0" x2="1" y2="0" gradientUnits="userSpaceOnUse" gradientTransform="matrix(434.712,439.915,-439.915,434.712,25.2418,18.8963)"><stop offset="0" style="stop-color:rgb(100,208,172);stop-opacity:1"/><stop offset="1" style="stop-color:rgb(248,255,174);stop-opacity:1"/></linearGradient>
        <linearGradient id="_Linear10" x1="0" y1="0" x2="1" y2="0" gradientUnits="userSpaceOnUse" gradientTransform="matrix(434.712,439.915,-439.915,434.712,25.2418,18.8963)"><stop offset="0" style="stop-color:rgb(100,208,172);stop-opacity:1"/><stop offset="1" style="stop-color:rgb(248,255,174);stop-opacity:1"/></linearGradient>
        <linearGradient id="_Linear11" x1="0" y1="0" x2="1" y2="0" gradientUnits="userSpaceOnUse" gradientTransform="matrix(434.712,439.915,-439.915,434.712,25.2418,18.8963)"><stop offset="0" style="stop-color:rgb(100,208,172);stop-opacity:1"/><stop offset="1" style="stop-color:rgb(248,255,174);stop-opacity:1"/></linearGradient>
    </defs>
</svg>
